{"title":"Flypaper.2011.BRRip.720p.x264.AAC-PRiSTiNE [P2PDL]","uid":9722570,"size":548915668,"categoryP":"video","categoryS":"hd___movies","magnet":"?xt=urn:btih:3318a1e446a76412fff08db06a594d419b089590&amp;dn=Flypaper.2011.BRRip.720p.x264.AAC-PRiSTiNE+%5BP2PDL%5D&amp;tr=udp%3A%2F%2Ftracker.openbittorrent.com%3A80&amp;tr=udp%3A%2F%2Fopen.demonii.com%3A1337&amp;tr=udp%3A%2F%2Ftracker.coppersurfer.tk%3A6969&amp;tr=udp%3A%2F%2Fexodus.desync.com%3A6969","seeders":1,"leechers":0,"uploader":"ValidusVyto","files":-1,"time":1394253483,"description":"Flypaper.2011.BRRip.720p.x264.AAC-PRiSTiNE\n\n\nGenre: Comedy | Crime &lt;a href=&quot;\nhttp://www.imdb.com/title/tt1541160/&quot; rel=&quot;nofollow&quot; target=&quot;_NEW&quot;&gt;\nhttp://www.imdb.com/title/tt1541160/&lt;/a&gt;\n\n\nFormat                                   : MPEG-4\nFile size                                : 514 MiB\nDuration                                 : 1h 27mn\nOverall bit rate                         : 823 Kbps\n\nVideo\nFormat                                   : AVC\nFormat profile                           : &lt;a class=&quot;__cf_email__&quot; href=&quot;/cdn-cgi/l/email-protection&quot; data-cfemail=&quot;470f2e202f070b736976&quot;&gt;[email&amp;#160;protected]&lt;/a&gt;&lt;script cf-hash='f9e31' type=&quot;text/javascript&quot;&gt;\n/* &lt;![CDATA[ */!function(){try{var t=&quot;currentScript&quot;in document?document.currentScript:function(){for(var t=document.getElementsByTagName(&quot;script&quot;),e=t.length;e--;)if(t[e].getAttribute(&quot;cf-hash&quot;))return t[e]}();if(t&amp;&amp;t.previousSibling){var e,r,n,i,c=t.previousSibling,a=c.getAttribute(&quot;data-cfemail&quot;);if(a){for(e=&quot;&quot;,r=parseInt(a.substr(0,2),16),n=2;a.length-n;n+=2)i=parseInt(a.substr(n,2),16)^r,e+=String.fromCharCode(i);e=document.createTextNode(e),c.parentNode.replaceChild(e,c)}}}catch(u){}}();/* ]]&gt; */&lt;/script&gt;\nDuration                                 : 1h 27mn\nBit rate                                 : 740 Kbps\nWidth                                    : 1 280 pixels\nHeight                                   : 544 pixels\nDisplay aspect ratio                     : 2.35:1\nFrame rate mode                          : Variable\nFrame rate                               : 23.976 fps\nBit depth                                : 8 bits\nStream size                              : 460 MiB (90%)\nWriting library                          : x264 core 142 r2389 956c8d8\n\nAudio\nFormat                                   : AAC\nBit rate                                 : 80.0 Kbps\nChannel(s)                               : 2 channels\nChannel positions                        : Front: L R\nSampling rate                            : 48.0 KHz\nStream size                              : 49.9 MiB (10%)\nLanguage                                 : English\n\nSubtitle                                 : Yes (English)\n &lt;a href=&quot;\nhttp://someimage.com/INUjAXC&quot; rel=&quot;nofollow&quot; target=&quot;_NEW&quot;&gt;\nhttp://someimage.com/INUjAXC&lt;/a&gt; &lt;a href=&quot;\nhttp://someimage.com/xKhK1f0&quot; rel=&quot;nofollow&quot; target=&quot;_NEW&quot;&gt;\nhttp://someimage.com/xKhK1f0&lt;/a&gt; &lt;a href=&quot;\nhttp://someimage.com/9eeb7kp&quot; rel=&quot;nofollow&quot; target=&quot;_NEW&quot;&gt;\nhttp://someimage.com/9eeb7kp&lt;/a&gt; &lt;a href=&quot;\nhttp://someimage.com/AIHcY8m&quot; rel=&quot;nofollow&quot; target=&quot;_NEW&quot;&gt;\nhttp://someimage.com/AIHcY8m&lt;/a&gt; &lt;a href=&quot;\nhttp://someimage.com/zPTgtI8&quot; rel=&quot;nofollow&quot; target=&quot;_NEW&quot;&gt;\nhttp://someimage.com/zPTgtI8&lt;/a&gt; &lt;a href=&quot;\nhttp://someimage.com/Es6dEoN&quot; rel=&quot;nofollow&quot; target=&quot;_NEW&quot;&gt;\nhttp://someimage.com/Es6dEoN&lt;/a&gt;\n\nVisit us at home @ P2PDL ","torrent":{"xt":"urn:btih:3318a1e446a76412fff08db06a594d419b089590","amp;dn":"Flypaper.2011.BRRip.720p.x264.AAC-PRiSTiNE+%5BP2PDL%5D","amp;tr":["udp%3A%2F%2Ftracker.openbittorrent.com%3A80","udp%3A%2F%2Fopen.demonii.com%3A1337","udp%3A%2F%2Ftracker.coppersurfer.tk%3A6969","udp%3A%2F%2Fexodus.desync.com%3A6969"],"infoHash":"3318a1e446a76412fff08db06a594d419b089590","infoHashBuffer":{"type":"Buffer","data":[51,24,161,228,70,167,100,18,255,240,141,176,106,89,77,65,155,8,149,144]},"announce":[],"urlList":[]}}